<svg viewBox="0 0 16 16" version="1.1" xmlns="http://www.w3.org/2000/svg" preserveAspectRatio="xMidYMid meet">
  <title>Logic Diagram</title>
  <g id="dbstandard-r" stroke-width="1" fill-rule="evenodd">
    <g id="db脑图" transform="translate(0.000000, 2.579391)" fill-rule="nonzero">
      <path d="M15,0 C15.5522847,0 16,0.44771525 16,1 C16,1.55228475 15.5522847,2 15,2 C14.6751005,2 14.3863901,1.84505636 14.20373,1.60503034 L12.5219305,1.6017654 C12.0525461,1.65749142 11.6314601,1.90926778 11.3600523,2.29038274 L11.2752658,2.42211987 L9.9547051,4.70226341 C9.91107094,4.77760424 9.86448912,4.85073451 9.81514168,4.92153007 L14.1342136,4.91986344 C14.3072241,4.62137369 14.6301665,4.42060852 15,4.42060852 C15.5522847,4.42060852 16,4.86832377 16,5.42060852 C16,5.97289327 15.5522847,6.42060852 15,6.42060852 C14.7204485,6.42060852 14.4676888,6.30589897 14.2862225,6.12098143 L9.70196388,6.1193288 C9.7858337,6.2151018 9.8651096,6.31540325 9.9393927,6.41995352 L10.0470229,6.57993061 L11.2224825,8.42710121 L11.3140032,8.55748327 C11.5724821,8.89234179 11.9434851,9.12280375 12.3582116,9.20613127 L12.5156493,9.23039869 L14.2106072,9.22725414 C14.3935905,8.99232348 14.6791489,8.84121704 15,8.84121704 C15.5522847,8.84121704 16,9.28893229 16,9.84121704 C16,10.3935018 15.5522847,10.841217 15,10.841217 C14.6666789,10.841217 14.3714472,10.6781367 14.1897408,10.4274121 L12.4511944,10.4269266 L12.2484164,10.3994642 C11.4473777,10.2656748 10.7700478,9.84700554 10.3182717,9.22974848 L10.2100856,9.0713469 L9.03462597,7.22417629 L8.91825137,7.05636017 C8.62785734,6.67113729 8.23574518,6.37605183 7.78783792,6.20329473 L7.73882476,6.21340458 L7.73541445,6.18372653 C7.69632569,6.16961761 7.65683329,6.1564322 7.61696693,6.1441911 L7.525,6.12 L7.5,6.12 L7.5,6.42060852 C7.5,7.24903565 6.82842712,7.92060852 6,7.92060852 L1.5,7.92060852 C0.671572875,7.92060852 0,7.24903565 0,6.42060852 L0,4.42060852 C0,3.5921814 0.671572875,2.92060852 1.5,2.92060852 L6,2.92060852 C6.82842712,2.92060852 7.5,3.5921814 7.5,4.42060852 L7.5,4.92 L7.95505408,4.92173792 C8.30318635,4.7876069 8.60609097,4.55307665 8.82345238,4.24564078 L8.91628787,4.100857 L10.2368485,1.82071346 C10.6571139,1.095063 11.3719656,0.592583979 12.2465845,0.435910657 L12.4511944,0.405949656 L14.1963135,0.404840697 C14.3785193,0.159200135 14.6706681,0 15,0 Z M6,4.12060852 L1.5,4.12060852 C1.35798392,4.12060852 1.23901581,4.21928862 1.20792321,4.35182127 L1.2,4.42060852 L1.2,6.42060852 C1.2,6.5626246 1.2986801,6.68159271 1.43121275,6.71268531 L1.5,6.72060852 L6,6.72060852 C6.14201608,6.72060852 6.26098419,6.62192842 6.29207679,6.48939577 L6.3,6.42060852 L6.3,4.42060852 C6.3,4.27859244 6.2013199,4.15962433 6.06878725,4.12853173 L6,4.12060852 Z" id="db形状结合" fill="currentColor"/>
    </g>
  </g>
</svg>

