<svg viewBox="0 0 1024 1024" version="1.1" xmlns="http://www.w3.org/2000/svg">
  <title>Standard Mindmap</title>
  <path
    d="M172.053333 237.312C161.856 234.88 150.656 234.666667 117.845333 234.666667H85.333333a32 32 0 0 1 0-64h36.138667c27.818667 0 47.061333 0 65.536 4.416a160.021333 160.021333 0 0 1 46.250667 19.157333c16.192 9.941333 29.781333 23.552 49.450666 43.2l103.893334 103.893333h250.816l103.893333-103.893333c19.626667-19.648 33.237333-33.28 49.429333-43.2a160.042667 160.042667 0 0 1 46.250667-19.157333C855.466667 170.666667 874.709333 170.666667 902.528 170.666667H938.666667a32 32 0 0 1 0 64h-32.490667c-32.853333 0-44.032 0.213333-54.229333 2.645333a96 96 0 0 0-27.754667 11.52c-8.938667 5.461333-17.002667 13.226667-40.213333 36.458667l-64.426667 64.426666A85.333333 85.333333 0 0 1 768 426.666667v53.333333h170.666667a32 32 0 1 1 0 64h-170.666667V597.333333a85.333333 85.333333 0 0 1-85.333333 85.333334H341.333333a85.333333 85.333333 0 0 1-85.333333-85.333334v-53.333333H85.333333a32 32 0 0 1 0-64h170.666667V426.666667a85.333333 85.333333 0 0 1 48.426667-76.970667l-64.405334-64.426667c-23.210667-23.210667-31.274667-30.976-40.213333-36.458666a96 96 0 0 0-27.733333-11.498667zM341.333333 405.333333a21.333333 21.333333 0 0 0-21.333333 21.333334v170.666666a21.333333 21.333333 0 0 0 21.333333 21.333334h341.333334a21.333333 21.333333 0 0 0 21.333333-21.333334v-170.666666a21.333333 21.333333 0 0 0-21.333333-21.333334H341.333333zM682.666667 682.666667h-45.248l103.893333 103.893333c19.626667 19.669333 33.237333 33.28 49.429333 43.2a160.021333 160.021333 0 0 0 46.250667 19.157333C855.466667 853.333333 874.709333 853.333333 902.528 853.333333H938.666667a32 32 0 0 0 0-64h-32.490667c-32.853333 0-44.032-0.213333-54.229333-2.645333a95.957333 95.957333 0 0 1-27.754667-11.52c-8.938667-5.461333-17.002667-13.226667-40.213333-36.437333l-64.426667-64.426667A84.992 84.992 0 0 1 682.666667 682.666667zM341.333333 682.666667c-13.226667 0-25.728-2.986667-36.906666-8.362667l-64.405334 64.426667c-23.210667 23.210667-31.274667 30.976-40.213333 36.458666a95.936 95.936 0 0 1-27.733333 11.498667c-10.218667 2.432-21.418667 2.645333-54.229334 2.645333H85.333333a32 32 0 1 0 0 64h36.138667c27.818667 0 47.061333 0 65.536-4.416a160 160 0 0 0 46.250667-19.157333c16.192-9.92 29.781333-23.530667 49.450666-43.2l103.893334-103.893333H341.333333z"
    fill="currentColor"
  />
</svg>
