<svg viewBox="0 0 1024 1024" version="1.1" xmlns="http://www.w3.org/2000/svg">
  <title>Tree Diagram</title>
  <path
    d="M585.142857 1024a73.142857 73.142857 0 0 1-73.142857-73.142857h-182.857143a109.714286 109.714286 0 0 1-109.714286-109.714286V292.571429h-146.285714a73.142857 73.142857 0 0 1-73.142857-73.142858V73.142857a73.142857 73.142857 0 0 1 73.142857-73.142857h438.857143a73.142857 73.142857 0 0 1 73.142857 73.142857v146.285714a73.142857 73.142857 0 0 1-73.142857 73.142858h-219.428571v548.571428a36.571429 36.571429 0 0 0 36.571428 36.571429h182.857143a73.142857 73.142857 0 0 1 73.142857-73.142857h292.571429a73.142857 73.142857 0 0 1 73.142857 73.142857v73.142857a73.142857 73.142857 0 0 1-73.142857 73.142857z m0-73.142857h292.571429v-73.142857h-292.571429z m-512-731.428572h438.857143V73.142857h-438.857143z m512 438.857143a73.142857 73.142857 0 0 1-73.142857-73.142857h-219.428571V512h219.428571a73.142857 73.142857 0 0 1 73.142857-73.142857h292.571429a73.142857 73.142857 0 0 1 73.142857 73.142857v73.142857a73.142857 73.142857 0 0 1-73.142857 73.142857z m0-73.142857h292.571429V512h-292.571429v73.142857z"
    fill="currentColor"
  />
</svg>
